<?xml version="1.0" encoding="UTF-8"?>
<svg id="Layer_2" xmlns="http://www.w3.org/2000/svg" viewBox="0 0 1152.75 100">
  <defs>
    <style>
      .cls-1 {
        fill: #e6bb98;
      }

      .cls-2 {
        fill: #f1cfb6;
      }

      .cls-3 {
        fill: #b3896b;
      }
    </style>
  </defs>
  <g id="behind">
    <g id="_x31_">
      <g id="Layer_1">
        <g id="_x31_-2" data-name="_x31_">
          <path class="cls-3" d="M1149.35,38.99c.23-.05.5-.05.73,0,.53.09,1.26,1.35.82,1.65-.22.15-.49-.11-.61-.15-.12-.04-.22-.11-.35-.09-.36,0-.74-.06-1.09.05-.14.05-.26.1-.34.1-1.17-.05.11-1.65.85-1.55h0Z"/>
          <path d="M1149.62,38.38c1.13-.24,1.7,1.55,1.73,2.38.02.51-.41.61-.49.18-.09-.55-.38-1.09-.66-1.57-.56-.97-1.65.66-1.98,1.11-.47.63-1.05.11-.64-.43.53-.7,1.1-1.55,2.04-1.67h0Z"/>
        </g>
      </g>
    </g>
    <g id="_x32_">
      <g id="Layer_1-2" data-name="Layer_1">
        <g id="_x32_-2" data-name="_x32_">
          <path class="cls-3" d="M1049.26,38.17c.21-.05.45-.04.66,0,.47.09,1.01.97.62,1.24-.47.32-.55-.24-.72-.34-.2-.11-.74.3-1.05.28-1.05-.04-.16-1.28.51-1.18h0Z"/>
          <path class="cls-3" d="M1049.58,37.86c.36-.13.61.18.8.43.23.3.19.75-.26.53-.22-.11-.16-.3-.41-.14-.78.49-.92-.73-.13-.82h0Z"/>
          <path d="M1049.62,37.27c1.13-.24,1.7,1.55,1.73,2.38.02.51-.41.61-.49.18-.09-.55-.38-1.09-.66-1.57-.56-.97-1.65.66-1.98,1.11-.47.63-1.05.11-.64-.43.53-.7,1.1-1.55,2.04-1.67h0Z"/>
        </g>
      </g>
    </g>
    <g id="_x35_">
      <g id="Layer_1-3" data-name="Layer_1">
        <g id="_x35_-2" data-name="_x35_">
          <path class="cls-3" d="M750.9,23.81c.24-.07.5.01.72.13.52.28,1.04,1.74.15,1.38-.38-.16-.34-.11-.75-.05-1.79.24-1.06-1-.12-1.45Z"/>
          <path d="M751.02,23.33c1.13-.24,1.7,1.55,1.73,2.38.02.51-.41.61-.49.18-.09-.55-.38-1.09-.66-1.57-.56-.97-1.65.66-1.98,1.11-.47.63-1.05.11-.64-.43.53-.7,1.1-1.55,2.04-1.67h0Z"/>
        </g>
      </g>
    </g>
    <g id="_x31_0">
      <path class="cls-1" d="M245.6,39.96c.02-.12.03-.24.05-.36.13-.21.26-.43.39-.65.26-.43.44-.88.55-1.34.06-.08.13-.15.21-.22.13-.1.22-.25.31-.37.22.1.43.1.62.02,0,.07.03.15.07.22.15.3-.02.81-.05,1.12-.01.13-.02.51.02.61.15.32.6.17.75-.06.14-.21.22-.25.29-.53.12-.52.29-1.76-.41-1.96h-.14c.04-.18.02-.38-.08-.56-.11-.2-.03-.17.15-.28.3-.18.56-.38.87-.56.48-.28.7-.48,1.28-.52l.2-.02c.02.21.06.41.17.6.33.58.05.7-.01,1.27-.04.45.27,1.05.13,1.38-.31.73-.38.98-.22,1.77.07.33-.28.48-.57.63-.72.37-1.34.89-2,1.34-.98.66-1.46,1.17-2.15,2.09-.48.64-1.12,1.1-1.62,1.7-.36.43-.66.75-1.06,1.15-.53.52-1.3.72-2.07.73-.36,0-.69.07-1.04.09-1.13.07-2.28.07-3.4.18l-.09.6c-.03-.28-.04-.56,0-.85.07-.75.07-1.54.04-2.31.74-.01,1.45-.06,2.19-.11.65-.05,1.34-.02,1.98-.1.63-.08,1.35-.37,1.94-.62.08-.03.17-.07.26-.12.26.16.66.06.93-.08.27-.14.53-.37.8-.53.27-.17.52-.43.77-.64.29-.24.56-.53.8-.83.29-.35.23-.84-.17-1.08-.1-.06-.07-.06-.09-.19-.02-.13.03-.2-.04-.35-.08-.18-.25-.3-.44-.3l-.11.02Z"/>
      <path class="cls-1" d="M250.69,34.52c.28-.03.52-.07.81-.11.1-.02.2-.02.28-.03.02.15.06.29.13.42.74,1.3,1.3,2.36,1.91,3.73.4.89-1.84,4.13-2.66,4.59-.74.41-1.74,1.89-2.45,2.36-1.21.8-1.75.96-2.75,1.95-.57.57-1.05.34-1.62.87-.96.9-1.07,1.55-2.38,1.64-1.07.07-1.88.61-2.96.68-.37.02-1.19-.15-1.8-.42-.15-.72-.38-1.43-.45-2.16l.09-.6c1.13-.11,2.27-.11,3.4-.18.35-.02.68-.09,1.04-.09.77,0,1.54-.22,2.07-.73.41-.39.71-.72,1.06-1.15.5-.59,1.13-1.06,1.62-1.7.7-.92,1.17-1.43,2.15-2.09.66-.45,1.28-.97,2-1.34.29-.15.64-.31.57-.63-.16-.79-.09-1.04.22-1.77.14-.33-.17-.93-.13-1.38.06-.57.35-.69.01-1.27-.11-.18-.15-.39-.17-.6Z"/>
      <path class="cls-1" d="M246.6,37.62c-.11.46-.29.9-.55,1.34-.13.22-.26.44-.39.65.05-.39.14-.77.38-1.09.21-.29.35-.62.57-.89Z"/>
      <path class="cls-1" d="M236.59,45.56c.55-.06.92.55.68,1.02-.07.15-.16.2-.03.34.46.5.05.94-.55.76-.28-.08-.48-.02-.71-.25-.44-.43-.11-1.85.61-1.88Z"/>
      <path class="cls-1" d="M237.02,44.34c.3-.03.61,0,.9.08.99.25,1.26,1.08.12,1.36-.22.05-.66-.05-.76.19-.27.69-.17,2.4.44,2.91.44.37.54,1.04.03,1.41-1.15.84-2.06-1.22-2.22-2.05-.23-1.22-.14-3.72,1.49-3.9Z"/>
      <path class="cls-3" d="M253.32,37.82c.1-.05.19,0,.25.08.28.38-.28,1.95-.49,2.38-.48.96-1.08,2.12-1.79,2.91-.58.64-1.28,1.52-1.94,2.01-1.05.78-2.2,1.45-3.32,2.14-.8.5-1.57.92-2.38,1.38-1.15.66-2.49,1.54-3.74,1.91-.86.25-1.2-.65-.45-.89,1.26-.4,2.24-1.05,3.4-1.68,1.7-.93,3.3-1.94,4.95-2.95.87-.53,1.33-1,2.03-1.74.91-.95,1.44-1.67,2.11-2.78.55-.92.89-1.82,1.37-2.76Z"/>
      <path class="cls-2" d="M247.25,38.15c.89-.09-.17,1.51-.5,1.6-1.02.27,0-1.64.5-1.6Z"/>
      <path d="M251.11,34.35c.41-.01.73.34,1.04.57.58.42.82.76,1.2,1.36.89,1.4.99,2.67.26,4.18-.17.35-.45.82-.68,1.12-.35.45-.75.81-1.09,1.28-.27.38-.75.24-.5-.15.2-.32.42-.65.67-.94.25-.3.42-.56.64-.88.74-1.11,1.19-2.49.51-3.75-.23-.43-.56-.92-.89-1.29-.19-.22-.86-.77-1.12-.87-.36-.14-.41-.45-.03-.62Z"/>
      <path d="M250.88,34.3c.12,0,.23.05.33.12.99.62,1.82,1.66,2.02,2.81.07.4.14,1.26-.05,1.61-.25.47-.39.03-.39-.26,0-.48-.04-.84-.13-1.29-.18-.93-.94-1.74-1.7-2.28-.3-.22-.9-.66-.08-.71Z"/>
      <path d="M250.45,34.8c.46-.08.72.43.94.74.52.72.67,1.82.57,2.7-.05.46-.44.56-.45.08-.01-.49-.07-.97-.16-1.45-.08-.43-.5-1.36-.91-1.56-.29-.14-.28-.4.01-.52Z"/>
      <path d="M249.62,35.2c.23-.06.37.14.49.3.68.91.83,2.18.55,3.29-.11.42-.58.49-.58.02,0-.88.08-1.71-.31-2.51-.16-.34-.78-.85-.15-1.09Z"/>
      <path d="M248.62,35.76c.24-.06.36.13.28.34-.09.24,0,.53.09.76.18.49.25.95.19,1.49-.06.53-.73,2.02-1.47,1.67-.75-.36-.34-1.32-.25-1.91.04-.27.03-.35-.22-.42-.5-.16-.27-.79.22-.71,1.07.17.72,1.46.55,2.17.35-.47.58-1.23.39-1.82-.17-.52-.42-1.24.21-1.57Z"/>
      <path d="M246.21,38.92c.08-.01.16,0,.22.06.09.1.03.6.02.76,0,.47.03.59.2,1.01.11.28.61.93.2,1.15-.53.3-.93-.92-1.05-1.25-.17-.48-.09-1.45.4-1.73Z"/>
      <path d="M249.73,44.21c.71-.69,1.38-1.43,1.97-2.21.25-.34.61-.73.8-1.1.24-.47.46-.96.62-1.46.1-.3.13-.62.23-.91.06-.2.07-.49.25-.6.24-.05.32.23.33.41.03.66-.06,1.35-.31,1.95-.15.37-.32.83-.54,1.17-.43.67-.98,1.32-1.49,1.92-.34.4-.71.83-1.08,1.2l-.12.12c-.19-.19-.41-.35-.66-.47Z"/>
      <path d="M251.29,43.04c.19.05.16.25.1.39-.46,1.17-1.85,2.01-2.78,2.79-.42.35-.82.58-1.25.88-.49.35-.97.68-1.47,1.02-.62.41-1.26.81-1.86,1.22-.49.33-1.05.54-1.53.84-.84.52-2.47,1.32-3.46,1.07-.77-.19-.53-.98.07-.8.62.19,1.1-.09,1.68-.28.54-.18.98-.52,1.49-.76,1.17-.55,2.22-1.33,3.3-2.03.54-.35,1.06-.78,1.61-1.12.68-.42,1.27-.93,1.9-1.42.51-.39.89-.82,1.36-1.25.22-.2.54-.58.84-.56Z"/>
      <path d="M246.78,41.48c.57.31-.33.94-.6,1.14-.83.59-1.69,1.19-2.58,1.68-.43.24-.96.5-1.41.67-.46.17-1.01.44-1.5.49-.38.03-.96.14-1.33.07-.7-.13-.5-.62.06-.73.55-.11,1.12-.03,1.66-.23.38-.14.78-.3,1.15-.46.72-.31,1.4-.74,2.08-1.14.42-.25.83-.57,1.24-.85.37-.25.78-.65,1.23-.64Z"/>
    </g>
    <g id="_x31_1">
      <path class="cls-1" d="M145.88,41.43c.37-.27.71-.48.41-.66-.1-.06-.07-.06-.09-.19-.02-.13.03-.2-.04-.35-.03-.06-.06-.11-.11-.15.02-.14.03-.28.04-.42.01-.2.56-.64.74-.84.33-.36.47-.7.89-1.03l.08-.07c-.02.06-.04.13-.05.22-.01.13.31-.17.36-.07.11.24.2.84.31,1.03-.08.26-.3.63-.42.82-.19.29-.72.54-.4.98.25.35.66.16.88-.1.57-.66,1.06-1.95.97-2.84.09-.08.17-.18.21-.27.05-.12.05-.31.12-.4.17-.22.18-.32.22-.59.02-.17.19-.24.34-.16.09.05.44.17.5.22.03.42.26.92.13,1.22-.31.73-.38.98-.22,1.77.07.33-.28.48-.57.63-.72.37-1.34.89-2,1.34-.98.66-1.46,1.17-2.15,2.09-.48.64-1.12,1.1-1.62,1.7-.36.43-.66.75-1.06,1.15-.53.52-1.3.72-2.07.73-.36,0-.69.07-1.04.09-.47.03-.95.05-1.42.07.04-.27.12-.52.28-.74.11-.15.27-.34.44-.57l.04.02c.76.39,1.77.17,2.37-.25.19-.13.45-.24.65-.38.63-.42,1.13-.92,1.78-1.33.43-.27.95-.85,1.17-1.22.27-.44.29-.94.32-1.43Z"/>
      <path class="cls-1" d="M138.36,50.96v-.13c0-.34-.08-.82.09-1.1.45-.69.25-1.63.37-2.4.47-.02.95-.04,1.42-.07.35-.02.68-.09,1.04-.09.77,0,1.54-.22,2.07-.73.41-.39.71-.72,1.06-1.15.5-.59,1.13-1.06,1.62-1.7.7-.92,1.17-1.43,2.15-2.09.66-.45,1.28-.97,2-1.34.29-.15.64-.31.57-.63-.16-.79-.09-1.04.22-1.77.13-.29-.1-.79-.13-1.22h.02c.2.23.3.33.62.36.13,0,.54.24.61.35.19.31.48.49.83.58.15.04.13.14.16.28.06.28.19.55.2.84,0,.42.28.68.6.75-.09.61-.3,1.35-.63,2.05-.61,1.3-1.63,2.41-2.04,2.63-.74.41-1.77.61-2.48,1.08-1.21.8-1.46,1.5-2.7,2.31-1.38.9-2.2,2.2-3.81,2.31-1.07.07-1.74,1.11-2.82,1.18-.21.01-.6-.12-1.03-.32Z"/>
      <path class="cls-1" d="M136.54,44.88c.65-.07,1.1.52,1.62.84.41.26,1.02.82,1.18,1.29.05.16.24.27.31.45.12.3-.06.45-.01.65.05.19.05.36-.03.54-.11.23.01.4-.14.67-.1.17-.26.21-.33.33-.19.31-.36.43-.75.37-.24-.04-.36.03-.63-.08-.34-.15-.99-.49-1.24-.75-.2-.19-.16-.4-.31-.54-.32-.3-.69-.72-.6-1.2.08-.48-.02-.99.17-1.44.08-.2.16-.16.16-.4,0-.38.23-.67.61-.72Z"/>
      <path class="cls-1" d="M137.02,44.91c.24-.05.46.11.68.15.59.09,1.34.42,1.77.84.55.53.4,1.48-.51,1.27-.27-.06-1.23-.54-1.4-.48-.13.04-.52.94-.56,1.1-.11.43.8,1.34,1.19,1.47.52.17.87.68.69,1.24-.25.77-1.07.72-1.68.48-.75-.3-1.58-1.01-1.93-1.75-.22-.46-.17-.7-.25-1.17-.23-1.35.48-3.01,2-3.14Z"/>
      <path class="cls-2" d="M146.15,42.59c.54-.1.38.37.16.62-.8.88-1.8,1.94-2.79,2.54-.77.47-1.44,1.07-2.23,1.47-.88.45-1.37-.3-.46-.78.74-.39,1.32-.95,2.04-1.36,1.19-.68,2.1-1.81,3.28-2.5Z"/>
      <path class="cls-2" d="M147.78,38.2c.44-.08.64.38.32.67-.24.22-.66.72-1,.59-.87-.32.27-1.18.68-1.26Z"/>
      <path class="cls-3" d="M153.54,40.35c.38-.08.36.43.27.67-.43,1.11-1.28,2.15-2.22,2.88-.82.64-1.77,1.3-2.7,1.8-.47.25-.79.53-1.2.82-.71.49-1.4.95-2.08,1.47-.64.49-1.32.88-1.98,1.34-.66.46-1.27.83-1.97,1.23-.57.32-1.7,1.03-2.34.98-.59-.04-.71-.55-.18-.82.55-.29,1.11-.55,1.65-.84.49-.27,1.04-.56,1.5-.87.73-.49,1.49-.96,2.2-1.48.63-.45,1.26-1,1.92-1.4.61-.37,1.14-.87,1.76-1.2.89-.47,1.7-1.06,2.52-1.63.67-.46,1.12-.93,1.66-1.53.41-.46.65-1.13,1.19-1.42Z"/>
      <path d="M150.19,36.23c1.06-.17,1.35.82,1.45,1.65.11.96-.48,2.4-1.09,3.15-.28.34-.67.19-.44-.22.25-.46.43-.93.61-1.4.25-.64.45-1.73.03-2.33-.43-.62-.63.28-.66.59-.13,1.26-.25,2.67-1.4,3.46-.43.29-1.44.5-1.59-.22-.13-.63.21-1.2.59-1.66.13-.16.75-1.03.23-1.03-.56,0-.9.72-1.12,1.13-.44.83-.43,1.8-.35,2.72.05.62-.55.89-.73.33-.13-.4-.09-1.22-.06-1.66.07-.98.34-1.81.97-2.58.52-.63,1.81-1.14,2.17-.1.39,1.12-.86,1.6-.95,2.58.74-.13,1.14-1,1.3-1.66.22-.91-.06-2.37,1.04-2.75Z"/>
      <path d="M151.48,36.66c.15-.04.32,0,.45.09.98.7.79,2.09.57,3.1-.08.38-.42,1.67-.91,1.7-.56.03.03-1.13.09-1.4.19-.77.45-1.99-.06-2.66-.75.33-.8-.68-.14-.82Z"/>
      <path d="M152.67,37.43c.46.07.72.57.82.99.29,1.34-.08,2.32-.84,3.38-.1.15-.43.46-.55.13-.07-.18.37-.97.47-1.18.26-.57.54-2.24-.07-2.66-.36-.25-.23-.65.18-.67Z"/>
      <path d="M153.31,39.28c.32-.06.58.29.7.55.33.7-.06,1.33-.3,1.96-.31.82-.64,1.23-1.3,1.78-.3.26-.63.07-.39-.28.21-.31.45-.58.63-.91.31-.56.78-1.42.79-2.05,0-.34-.46-.79-.12-1.04Z"/>
      <path d="M152.92,42.42c.23-.06.34.16.25.36-.23.53-1.13,1.38-1.62,1.7-.74.49-1.39,1.06-2.14,1.53-.86.53-1.67,1.23-2.55,1.71-.89.49-1.69,1.07-2.56,1.59-.76.45-1.52,1.07-2.3,1.49-.36.19-.81.44-1.18.59-.6.24-.91-.37-.44-.66.41-.25.92-.42,1.34-.68.82-.51,1.61-1.08,2.44-1.59.6-.36,1.19-.83,1.81-1.15,1.04-.55,1.96-1.28,2.95-1.91.7-.45,1.31-.99,2-1.44.72-.47,1.21-1.24,2.01-1.55Z"/>
      <path d="M146.03,42.06c.2-.07.35.14.36.32.04.58-1.13,1.55-1.58,1.85-.49.33-.93.73-1.4,1.09-.64.48-1.34,1.01-2.04,1.39-.65.35-1.08-.33-.45-.64.59-.29,1.09-.73,1.63-1.1.45-.3.83-.67,1.27-.98.81-.58,1.53-1.2,2.22-1.93Z"/>
    </g>
  </g>
</svg>