<?xml version="1.0" encoding="UTF-8"?>
<svg id="Layer_2" xmlns="http://www.w3.org/2000/svg" version="1.1" viewBox="0 0 1858.3 1880.8">
  <!-- Generator: Adobe Illustrator 29.3.1, SVG Export Plug-In . SVG Version: 2.1.0 Build 151)  -->
  <defs>
    <style>
      .st0 {
        fill: #aaa;
      }
    </style>
  </defs>
  <g id="Layer_1-2">
    <g>
      <path d="M909.7.6c108.3-5.5,198.7,30.3,292.2,79.2,31.6,16.5,66.3,34.9,96.7,53.3,12,7.3,20,13.9,18.2,29.6-.4,3.8-2.5,7.4-2.9,11.1-.9,8.2.5,25.1,1,34.1,3.9,75.8,19.8,164.6,62.6,228.4,69.2,102.9,189.2,112.4,302.8,94.9,22.7-3.5,48.8-13.2,70.9-6.5,13.8,4.2,17.2,17,22.2,28.8,104.4,246.6,119.2,518.2,6.7,764.6-6.4,14.1-20.6,48.7-33.3,55.7-3.1,1.7-11.8,6-14.9,7.1-11.8,4.2-44.4-5.1-58.6-7.3-168.5-25.6-308.1,21.4-358.6,195.1-13.4,46.1-22.8,106.9-17.8,154.3,1.1,10.3-.5,18.4-8.4,25.4-3.1,2.7-17.9,12.5-21.6,14.4-92.8,46.4-180.4,103-286.5,115.5-150.5,17.7-272.6-55.4-396.4-128.3-4.9-2.9-6.6-8.9-9.5-12.5-2.1-2.5-6.5-4.7-8.9-8.1-7.3-10.4-4-26.3-4.5-38.5-1.9-42.2-6.5-84.7-18.8-125.2-47-155.3-177.5-200.8-328.8-195.3-28.4,1.1-57.6,7.6-85.8,6.9-19.2-.5-26.7-22.7-33.8-37.2-120.1-247.4-124.8-528.6-14.3-780.6,9.2-21.1,16.1-39.8,44.5-29.5,14.6,5.3,26.8,6.2,42.5,7.5,131.3,10.5,266.6-14.5,334-139,29.6-54.7,43.2-125.6,45.5-187.5.6-14.8-2.8-41.9,3.8-54.2,3.3-6.1,16.8-18.1,22.9-22.1,31-20,69.4-40.3,102.3-57.7C747.6,38.3,826.3,4.8,909.7.6ZM1723.9,580.2c-113.4,23.5-246.1,24.8-339.5-53-101.1-84.3-123.8-227-127-352-103.7-58.9-214.9-124.4-339-119-115.9,5-217.6,70.4-315,126-1.7,39.1-3.8,77.7-10.8,116.2-15.7,86.9-53.3,168.9-124.2,223.8-87.5,67.6-200.5,78.9-308,71-8.8-.6-19.4-3-28-3.1-2.5,0-4.8-.3-5.8,2.3-61.2,147.7-85.7,308.9-61.6,468.1,13.6,89.7,42.4,176.3,80.7,258.1,1,1.2,5.1.7,6.6.6,17.9-1.1,35.9-4.1,54-5,124.2-6.2,253.1,21.3,332.9,123.1,58.8,75.1,77,173.2,78.1,266.9,80,44.9,161.5,97.8,253.3,114.7,137.3,25.2,252.7-41.2,366.9-106,2.4-8.5.8-17.5,1.2-26.3,4.8-86,24.3-174.6,74.2-245.8,79.9-113.8,211.8-141.7,344.2-126.6,18.5,2.1,36.9,5.6,55.2,8.9l3.3-1.7c75.5-147.4,100.4-313.4,79-477.8-11.8-90.7-38.1-178.7-70.9-263.7h0Z"/>
      <path class="st0" d="M1723.9,580.2c32.8,84.9,59,173,70.9,263.7,21.4,164.3-3.5,330.3-79,477.8l-3.3,1.7c-18.3-3.3-36.7-6.8-55.2-8.9-132.3-15.2-264.3,12.8-344.2,126.6-50,71.2-69.4,159.8-74.2,245.8-.5,8.7,1.2,17.8-1.2,26.3-114.2,64.8-229.6,131.2-366.9,106-91.8-16.9-173.4-69.8-253.3-114.7-1-93.8-19.3-191.8-78.1-266.9-79.8-101.9-208.7-129.3-332.9-123.1-18,.9-36.1,3.9-54,5-1.5,0-5.6.7-6.6-.6-38.4-81.8-67.1-168.3-80.7-258.1-24.1-159.1.4-320.4,61.6-468.1,1-2.7,3.3-2.3,5.8-2.3,8.6,0,19.2,2.4,28,3.1,107.5,7.8,220.4-3.4,307.9-71,71-54.9,108.5-136.9,124.2-223.8,7-38.5,9.1-77.1,10.8-116.2,97.3-55.7,199.1-121,315-126,124.2-5.4,235.3,60.1,339,119,3.3,125,25.9,267.7,127,352,93.4,77.8,226,76.5,339.5,53h0ZM897.4,527.8c-266.3,11.2-466.6,262.2-395.9,525.1,56,208.1,263.5,336.5,475.7,308.3,253.8-33.7,429.2-282.1,354-532.9-56.6-188.7-238.2-308.7-433.8-300.5h0Z"/>
      <path d="M900.6,593.4c164.9-6.9,318,94.3,365.8,253.4,63.5,211.5-84.4,420.9-298.5,449.4-178.9,23.8-353.9-84.5-401.1-260-59.6-221.7,109.3-433.3,333.8-442.8h0ZM900.8,506.4c-262.1,10-469.8,236.1-432.2,501.2,23.8,167.9,147.8,306.2,307.9,356.9,280.2,88.8,580.8-102.1,594.3-400,11.8-262.1-212.4-468-470-458.1h0Z"/>
    </g>
  </g>
</svg>